<svg xmlns="http://www.w3.org/2000/svg" width="360" height="360" viewBox="0 0 360 360" fill="none">
  <g stroke="#5B3FD6" stroke-opacity="0.09" stroke-width="2.2" stroke-linecap="round" stroke-linejoin="round" fill="none">
    <!-- 책 -->
    <g transform="translate(24 34) rotate(-10) scale(1.5)">
      <path d="M16 8c-3-2-8-2-11-1v18c3-1 8-1 11 1 3-2 8-2 11-1V7c-3-1-8-1-11 1z"/>
      <path d="M16 8v18"/>
    </g>
    <!-- 축구공 -->
    <g transform="translate(168 24) rotate(0) scale(1.5)">
      <circle cx="16" cy="16" r="12"/>
      <polygon points="16,10 21,14 19,20 13,20 11,14"/>
      <path d="M16 4v6M28 16h-7M20 27l-2-6M12 27l2-6M4 16h7"/>
    </g>
    <!-- 테니스 라켓 -->
    <g transform="translate(288 52) rotate(22) scale(1.45)">
      <ellipse cx="14" cy="12" rx="9" ry="11"/>
      <path d="M8 6v12M14 4v16M20 6v12M6 10h16M6 15h16"/>
      <path d="M18 22l7 9"/>
    </g>
    <!-- 덤벨 -->
    <g transform="translate(48 156) rotate(8) scale(1.5)">
      <path d="M7 16h18"/>
      <rect x="3" y="11" width="4" height="10" rx="1"/>
      <rect x="25" y="11" width="4" height="10" rx="1"/>
      <rect x="8" y="13" width="3" height="6" rx="1"/>
      <rect x="21" y="13" width="3" height="6" rx="1"/>
    </g>
    <!-- 텐트(캠핑) -->
    <g transform="translate(196 150) rotate(-5) scale(1.5)">
      <path d="M16 6L5 27h22z"/>
      <path d="M16 6v21"/>
      <path d="M12 27l4-8 4 8"/>
    </g>
    <!-- 골프 깃발 -->
    <g transform="translate(316 172) rotate(0) scale(1.5)">
      <path d="M9 5v22"/>
      <path d="M9 6l12 3-12 3z"/>
      <path d="M4 27h20"/>
    </g>
    <!-- 음표 -->
    <g transform="translate(40 258) rotate(10) scale(1.45)">
      <path d="M12 6v16"/>
      <path d="M12 6l11-2v16"/>
      <circle cx="9" cy="22" r="3"/>
      <circle cx="20" cy="20" r="3"/>
    </g>
    <!-- 산(등산) -->
    <g transform="translate(168 270) rotate(0) scale(1.5)">
      <path d="M3 26l8-14 5 8 3-5 6 11z"/>
      <circle cx="23" cy="8" r="3"/>
    </g>
    <!-- 카메라 -->
    <g transform="translate(288 278) rotate(-8) scale(1.4)">
      <rect x="4" y="10" width="24" height="16" rx="3"/>
      <circle cx="16" cy="18" r="5"/>
      <path d="M11 10l2-3h6l2 3"/>
    </g>
  </g>
</svg>
